<svg xmlns="http://www.w3.org/2000/svg" width="103" height="34" fill="none"><g clip-path="url(#a)"><path fill="#4D4D4D" d="M13.365 16.993c0 3.129 1.303 6.143 3.593 8.29.695-1.178.92-2.661.511-4.16-.565-2.078-2.198-3.618-4.104-4.13z"/><path fill="#333" d="M13.95 13.425a11.301 11.301 0 0 0-.54 2.57c2.64.264 4.88 3.304 5.14 7.16a10.273 10.273 0 0 1-.274 3.18c.594.41 1.236.762 1.922 1.06.362-1.798.35-3.786-.114-5.793-.905-3.923-3.304-6.931-6.134-8.18v.003zm12.223-1.882c2.865.645 5.673.219 7.849-.985-.407-.59-.87-1.143-1.388-1.648-1.97 1.585-5.28 1.909-8.446.59-1.652-.686-3.015-1.718-3.98-2.903-.302.13-.6.273-.89.432 1.43 2.141 3.863 3.84 6.855 4.514zm9.736 7.137c.092-.619.133-1.241.124-1.858-2.367.747-4.609 2.484-6.118 5.003-1.146 1.915-1.696 3.99-1.693 5.946.267-.085.527-.18.788-.286.235-1.782 1.178-3.82 2.747-5.638 1.262-1.46 2.726-2.54 4.152-3.163v-.004z"/><path fill="#666" d="M34.926 12.127c-3.195 1.461-8.084 1.318-12.928-.695a21.981 21.981 0 0 1-4.92-2.818 11.18 11.18 0 0 0-2.331 2.97c3.659 1.54 6.65 7.201 7.118 14.132.05.772.07 1.53.057 2.274 1.56.397 3.145.445 4.666.184.229-3.189 1.865-6.953 4.74-10.278a21.996 21.996 0 0 1 4.307-3.853 11.19 11.19 0 0 0-.709-1.916zm-9.872 8.955c-4.555 0-4.549-7.068 0-7.068s4.549 7.068 0 7.068z"/><path fill="#4D4D4D" d="M26.703 9.382c1.81.333 3.637-.178 5.047-1.252a11.27 11.27 0 0 0-2.703-1.594 11.28 11.28 0 0 0-6.569-.648c.654 1.756 2.185 3.119 4.225 3.494zm8.582 11.652c-1.664.264-3.313 1.376-4.364 3.126a6.933 6.933 0 0 0-.962 2.878 11.284 11.284 0 0 0 5.202-5.686c.045-.105.083-.213.124-.318z"/></g><path fill="#333" d="m80.793 22.702 3.118-4.311-3.055-4.217h2.242l1.919 2.724 1.887-2.724h2.243l-3.056 4.217 3.135 4.311h-2.243l-1.966-2.819-1.982 2.82h-2.242zm-4.367.238c-.863 0-1.621-.187-2.274-.56a3.992 3.992 0 0 1-1.532-1.556c-.363-.663-.545-1.427-.545-2.29 0-.932.18-1.74.537-2.424a3.922 3.922 0 0 1 1.493-1.603c.636-.379 1.373-.569 2.21-.569.885 0 1.635.208 2.25.624.622.41 1.082.993 1.383 1.745.3.753.413 1.64.34 2.661H78.4v-.695c-.005-.926-.169-1.602-.49-2.029-.32-.426-.826-.64-1.516-.64-.779 0-1.358.243-1.737.727-.379.479-.568 1.182-.568 2.108 0 .863.19 1.532.568 2.006.38.474.932.71 1.658.71.469 0 .872-.102 1.209-.308.342-.21.605-.513.79-.908l1.878.569a3.81 3.81 0 0 1-1.516 1.792 4.142 4.142 0 0 1-2.25.64zm-2.937-3.972v-1.437h5.866v1.437H73.49zm-2.343 3.734a7.78 7.78 0 0 1-1.658.134 3.799 3.799 0 0 1-1.445-.292 2.002 2.002 0 0 1-.97-.892 2.543 2.543 0 0 1-.309-1.13 48.15 48.15 0 0 1-.016-1.302v-7.415h1.895v7.304c0 .342.003.642.008.9.01.258.066.469.166.632.19.316.492.492.908.529.416.037.89.016 1.421-.063v1.595zm-5.945-7.036v-1.492h5.945v1.492h-5.945zm-5.36 7.037v-8.528h1.682v2.077l-.205-.269c.105-.284.245-.542.418-.774.18-.237.393-.431.64-.584.21-.142.442-.253.695-.332.258-.084.52-.134.79-.15.268-.02.528-.01.781.032v1.776a2.441 2.441 0 0 0-.876-.07 2.007 2.007 0 0 0-.885.276 1.99 1.99 0 0 0-.647.545 2.3 2.3 0 0 0-.363.758 3.322 3.322 0 0 0-.119.908v4.335h-1.91zm-5.996.237c-.853 0-1.597-.192-2.234-.576a3.96 3.96 0 0 1-1.485-1.588c-.347-.679-.521-1.458-.521-2.337 0-.895.179-1.679.537-2.353.358-.674.855-1.2 1.492-1.579s1.374-.569 2.211-.569c.858 0 1.606.193 2.243.577a3.947 3.947 0 0 1 1.484 1.595c.353.674.53 1.45.53 2.33 0 .884-.18 1.665-.538 2.344a3.96 3.96 0 0 1-1.484 1.588c-.637.378-1.382.568-2.235.568zm0-1.785c.758 0 1.321-.252 1.69-.758.368-.505.553-1.158.553-1.958 0-.826-.187-1.484-.561-1.974-.374-.495-.934-.742-1.682-.742-.51 0-.932.116-1.263.347a2 2 0 0 0-.727.956c-.158.405-.236.876-.236 1.413 0 .827.186 1.487.56 1.982.38.49.934.735 1.666.735zm-10.384 1.547-3.584-11.37h1.958l3 9.523 3.04-9.523h1.958l-3.584 11.37H43.46z"/><defs><clipPath id="a"><path fill="#fff" d="M13.365 5.666h22.667v22.667H13.365z"/></clipPath></defs></svg>