<svg xmlns="http://www.w3.org/2000/svg" width="103" height="34" fill="none"><g clip-path="url(#a)"><path fill="#333" d="M15.407 6.855c4.965-2.785 12.058-.502 15.846 5.103 3.787 5.605 2.834 12.404-2.128 15.189 4.22-2.366 5.029-8.149 1.809-12.911-3.22-4.763-9.251-6.705-13.468-4.34-4.22 2.37-5.029 8.15-1.812 12.915 3.22 4.762 9.248 6.705 13.468 4.336-4.965 2.787-12.058.501-15.845-5.104-3.785-5.602-2.832-12.404 2.13-15.188z"/><path fill="#666" d="M19.098 8.656c4.067-2.283 9.88-.41 12.98 4.18C35.182 17.429 34.4 23 30.333 25.283c3.458-1.939 4.12-6.677 1.482-10.578-2.635-3.9-7.577-5.494-11.032-3.555-3.458 1.94-4.12 6.678-1.483 10.582 2.638 3.903 7.578 5.494 11.036 3.551-4.067 2.284-9.88.413-12.98-4.18-3.104-4.591-2.323-10.166 1.745-12.446h-.003z"/><path fill="#333" d="M24.811 8.472c4.311.271 8.26 4.017 8.816 8.367.554 4.35-2.49 7.655-6.802 7.387 3.666.23 6.254-2.58 5.783-6.278-.474-3.7-3.826-6.883-7.492-7.113-3.666-.23-6.256 2.58-5.782 6.278.473 3.7 3.829 6.883 7.491 7.113-4.31-.272-8.256-4.018-8.813-8.368-.557-4.35 2.488-7.655 6.802-7.386h-.003z"/><path fill="#4D4D4D" d="M29.335 10.232c3.41 2.048 5.02 6.212 3.599 9.299-1.424 3.086-5.342 3.928-8.753 1.88 2.901 1.74 6.232 1.026 7.44-1.598 1.21-2.624-.161-6.162-3.06-7.904-2.9-1.74-6.23-1.026-7.439 1.598-1.21 2.624.158 6.162 3.06 7.902-3.411-2.047-5.021-6.212-3.597-9.298 1.424-3.087 5.342-3.93 8.752-1.882l-.002.003z"/></g><path fill="#333" d="M87.716 23.805c-.614 0-1.134-.116-1.56-.347a2.45 2.45 0 0 1-.968-.936 2.603 2.603 0 0 1-.322-1.284c0-.41.068-.776.204-1.102.137-.33.347-.614.63-.85.284-.242.651-.438 1.102-.59.341-.11.74-.21 1.197-.3.462-.089.96-.17 1.496-.244.54-.079 1.105-.162 1.692-.252l-.677.386c.005-.588-.126-1.02-.393-1.299-.268-.278-.72-.417-1.354-.417-.384 0-.754.09-1.11.268-.357.178-.607.485-.748.92l-1.732-.543a3.219 3.219 0 0 1 1.196-1.732c.593-.435 1.391-.653 2.394-.653.755 0 1.42.123 1.991.37.578.247 1.005.65 1.283 1.212.153.3.245.607.276.922.032.31.047.648.047 1.015v5.22H90.7v-1.843l.275.3c-.383.614-.832 1.065-1.346 1.354-.51.283-1.147.425-1.913.425zm.377-1.512c.43 0 .798-.076 1.103-.228a2.15 2.15 0 0 0 .724-.56c.183-.22.307-.427.37-.621.1-.241.155-.517.165-.827.016-.314.024-.569.024-.763l.582.173c-.572.09-1.062.168-1.472.236-.41.068-.76.134-1.055.197a6.711 6.711 0 0 0-.78.197 2.41 2.41 0 0 0-.558.275c-.152.105-.27.226-.354.362a.945.945 0 0 0-.118.48c0 .21.052.397.157.56.105.157.257.283.457.377a1.8 1.8 0 0 0 .755.142zm-6.729 1.277v-4.094c0-.267-.019-.564-.055-.89a3.08 3.08 0 0 0-.26-.936 1.776 1.776 0 0 0-.598-.748c-.263-.194-.62-.291-1.071-.291-.242 0-.48.04-.716.118a1.645 1.645 0 0 0-.646.41c-.189.188-.341.45-.457.787-.115.33-.173.755-.173 1.275l-1.126-.48c0-.725.14-1.38.418-1.968a3.35 3.35 0 0 1 1.243-1.402c.546-.352 1.218-.527 2.016-.527.63 0 1.15.105 1.559.315.409.21.734.477.976.803.241.325.42.671.535 1.039.116.367.19.716.22 1.047.037.325.056.59.056.795v4.747h-1.921zm-5.897 0v-8.502h1.693v2.637h.228v5.865h-1.92zm-4.239-9.794v-1.74h1.897v1.74h-1.897zm0 9.793v-8.502h1.897v8.502h-1.897zm-4.11.001v-5.165c0-.582-.144-1.036-.433-1.361-.288-.331-.68-.496-1.172-.496-.305 0-.578.07-.82.212a1.45 1.45 0 0 0-.574.614c-.142.268-.212.588-.212.96l-.843-.495c-.005-.588.126-1.105.394-1.551.273-.452.64-.803 1.102-1.055a3.168 3.168 0 0 1 1.543-.378c.94 0 1.658.283 2.157.85.504.562.756 1.302.756 2.22v5.645h-1.898zm-10.226 0v-8.502h1.677v2.637h.236v5.865h-1.913zm5.125 0v-5.14c0-.594-.144-1.056-.433-1.386-.289-.331-.682-.496-1.18-.496-.484 0-.872.165-1.166.496-.289.33-.433.76-.433 1.29l-.85-.566c0-.551.136-1.047.41-1.488a2.92 2.92 0 0 1 1.101-1.04 3.21 3.21 0 0 1 1.567-.385c.635 0 1.165.136 1.59.41.43.267.75.634.96 1.101.216.462.324.985.324 1.567v5.637h-1.89zm-11.777.244c-.63 0-1.149-.105-1.558-.315a2.752 2.752 0 0 1-.977-.803 3.495 3.495 0 0 1-.535-1.04 5.554 5.554 0 0 1-.228-1.038 8.85 8.85 0 0 1-.047-.803v-4.748h1.92v4.094c0 .262.019.559.056.89.036.325.12.64.251.944.137.3.336.546.599.74.267.195.627.292 1.078.292.242 0 .48-.04.717-.118.236-.08.448-.213.637-.402.194-.194.35-.46.465-.795.115-.336.173-.761.173-1.275l1.126.48c0 .724-.142 1.38-.425 1.968a3.348 3.348 0 0 1-1.236 1.41c-.546.345-1.218.519-2.016.519zm2.78-.244v-2.638h-.229v-5.865h1.905v8.503H53.02zm-14.205 0V12.234h1.897v9.557h5.007v1.78h-6.904z"/><defs><clipPath id="a"><path fill="#fff" d="M10.96 5.666h23.018v22.667H10.96z"/></clipPath></defs></svg>