<svg xmlns="http://www.w3.org/2000/svg" width="102" height="34" fill="none"><g fill-rule="evenodd" clip-path="url(#a)" clip-rule="evenodd"><path fill="#4D4D4D" d="M11.36 24.51c-5.54-4.907-4.806-12.873.75-16.82 3.901-2.77 9.843-3.11 13.625 1.612 2.68 3.348 2.864 8.16 1.166 11.066-1.065 1.814-3.509 3.156-5.005 1.364-1.36-1.627.158-3.07.69-4.97 1.9-6.811-7.527-11.636-12.493-5.083-2.534 3.343-2.392 8.497 1.267 12.83z"/><path fill="#333" d="M28.737 9.65c5.427 5.034 4.509 12.981-1.136 16.797-3.966 2.68-9.91 2.883-13.584-1.923-2.605-3.411-2.677-8.228-.911-11.092 1.105-1.787 3.58-3.077 5.038-1.248 1.323 1.657-.233 3.067-.806 4.952-2.054 6.77 7.257 11.811 12.373 5.372 2.61-3.284 2.587-8.446-.97-12.858h-.004z"/></g><path fill="#333" d="m88.411 25.782 1.542-4.231.03 1.245-3.49-8.574h1.86l2.474 6.343h-.474l2.408-6.343h1.786l-4.46 11.56H88.41zm-2.554-3.556a7.291 7.291 0 0 1-1.556.126 3.566 3.566 0 0 1-1.356-.274 1.88 1.88 0 0 1-.912-.838 2.387 2.387 0 0 1-.289-1.06 44.49 44.49 0 0 1-.015-1.222V12h1.779v6.854c0 .321.002.603.007.845.01.242.062.44.156.593.178.296.462.461.852.496.39.035.835.015 1.334-.06v1.498zm-5.58-6.603v-1.4h5.58v1.4h-5.58zm-3.117-2.617V11.37h1.787v1.637H77.16zm0 9.219v-8.003h1.787v8.003H77.16zm-4.981.223c-.825 0-1.53-.183-2.112-.549a3.652 3.652 0 0 1-1.341-1.511c-.307-.638-.462-1.359-.467-2.164.005-.82.165-1.546.481-2.179a3.635 3.635 0 0 1 1.364-1.497C70.692 14.183 71.39 14 72.2 14c.909 0 1.677.23 2.305.69.632.454 1.044 1.076 1.237 1.867l-1.778.481c-.139-.43-.368-.763-.69-1a1.775 1.775 0 0 0-1.096-.363c-.465 0-.847.11-1.149.333a1.895 1.895 0 0 0-.667.904 3.745 3.745 0 0 0-.215 1.312c0 .76.17 1.376.512 1.845.34.47.847.704 1.519.704.474 0 .847-.109 1.119-.326.276-.217.484-.531.622-.941l1.823.407c-.247.816-.68 1.443-1.297 1.883-.617.434-1.373.652-2.267.652zm-9.101-.001c-.8 0-1.5-.18-2.098-.54a3.717 3.717 0 0 1-1.393-1.49c-.326-.638-.489-1.369-.489-2.194 0-.84.168-1.576.504-2.208a3.716 3.716 0 0 1 1.4-1.482c.598-.356 1.29-.534 2.075-.534.806 0 1.507.18 2.105.541.598.361 1.062.86 1.393 1.497.331.633.497 1.361.497 2.186 0 .83-.168 1.564-.504 2.201a3.717 3.717 0 0 1-1.393 1.49c-.598.355-1.297.533-2.097.533zm0-1.674c.71 0 1.24-.238 1.585-.712.346-.474.519-1.087.519-1.838 0-.775-.175-1.393-.526-1.852-.35-.465-.877-.697-1.579-.697-.479 0-.874.109-1.185.326a1.876 1.876 0 0 0-.682.897c-.148.38-.222.823-.222 1.326 0 .776.175 1.396.526 1.86.356.46.877.69 1.563.69zm-7.541 1.452V11.332h1.786v10.893h-1.786zm-5.425.223c-.81 0-1.521-.176-2.134-.526a3.747 3.747 0 0 1-1.437-1.46c-.341-.623-.512-1.339-.512-2.15 0-.874.168-1.632.504-2.274a3.682 3.682 0 0 1 1.4-1.505c.599-.355 1.29-.533 2.076-.533.83 0 1.533.195 2.111.585.584.386 1.016.932 1.297 1.638.282.707.388 1.539.319 2.497h-1.771v-.652c-.005-.87-.158-1.504-.46-1.904-.3-.4-.775-.6-1.422-.6-.731 0-1.275.227-1.63.681-.356.45-.534 1.11-.534 1.979 0 .81.178 1.437.534 1.882.355.445.874.667 1.556.667.44 0 .817-.096 1.133-.289.322-.198.569-.482.741-.852l1.764.533a3.575 3.575 0 0 1-1.423 1.683c-.637.4-1.341.6-2.112.6zm-2.756-3.728v-1.348h5.506v1.348h-5.506zm-7.093 3.505-3.365-10.67h1.838l2.816 8.936 2.853-8.937h1.838l-3.364 10.671h-2.616z"/><defs><clipPath id="a"><path fill="#fff" d="M7.555 5.666h24.803v22.667H7.555z"/></clipPath></defs></svg>