<svg xmlns="http://www.w3.org/2000/svg" width="103" height="34" fill="none"><g clip-path="url(#a)"><path fill="#333" d="M33.999 20.305c-.971-2.475-1.921-4.909-2.892-7.393-.118.324-.218.597-.32.87-1.02 2.816-2.042 5.628-2.895 8.499-.18.609-.32 1.231-.483 1.845-.055.201 0 .336.163.466.665.538 1.438.828 2.257 1.021 1.24.295 2.45.114 3.653-.214 1.984-.542 3.66-1.56 4.892-3.24.92-1.257 1.412-2.682 1.585-4.216.227-2.03-.11-3.96-1.173-5.716-1.564-2.585-3.858-4.102-6.864-4.438-4.946-.547-9.406 2.887-10.209 7.809-.382 2.358.06 4.568 1.278 6.62.034.058.076.117.11.18.117.223.058.467-.143.593a.42.42 0 0 1-.58-.11c-.244-.34-.488-.684-.698-1.046-2.564-4.46-1.576-10.12 2.345-13.487 6.137-5.267 15.72-2.396 17.943 5.409 1 3.518.512 6.868-1.602 9.894-1.5 2.152-3.61 3.48-6.115 4.19-1.21.345-2.442.572-3.711.462-1.753-.15-3.363-.676-4.737-1.836-.9-.757-1.19-1.665-.92-2.812.37-1.593.861-3.144 1.39-4.686a191.924 191.924 0 0 1 3.683-9.756c.218-.542.638-.823 1.18-.802.518.02.913.353 1.085.903l4.174 13.429c.025.088.054.172.083.26.114.35-.025.686-.336.833-.32.151-.672.03-.866-.286-.617-1.009-1.39-1.879-2.353-2.572-.92-.66-1.93-1.039-3.085-.954-.324.025-.542-.152-.563-.433-.021-.295.164-.492.496-.534 1.252-.151 2.404.16 3.48.782.248.138.47.29.748.466z"/></g><path fill="#333" d="m74.228 21.225 2.972-4.109-2.912-4.019h2.137l1.829 2.597 1.799-2.597h2.137l-2.912 4.02 2.987 4.108h-2.137l-1.874-2.687-1.89 2.687h-2.136zm-4.163.225c-.822 0-1.545-.177-2.167-.534a3.805 3.805 0 0 1-1.46-1.482c-.346-.632-.52-1.36-.52-2.183 0-.888.171-1.658.512-2.31a3.738 3.738 0 0 1 1.423-1.528c.607-.361 1.31-.542 2.107-.542.843 0 1.558.198 2.145.595.592.391 1.03.945 1.317 1.663.286.717.394 1.563.324 2.536h-1.8v-.662c-.004-.883-.16-1.528-.466-1.934-.306-.407-.788-.61-1.445-.61-.742 0-1.294.23-1.656.693-.36.456-.541 1.126-.541 2.009 0 .823.18 1.46.541 1.912.362.451.888.677 1.58.677.447 0 .831-.098 1.152-.294.327-.2.577-.489.753-.865l1.791.542a3.63 3.63 0 0 1-1.445 1.708 3.953 3.953 0 0 1-2.145.61zm-2.8-3.785v-1.37h5.593v1.37h-5.592zm-6.264 3.785c-.793 0-1.457-.187-1.994-.564a3.455 3.455 0 0 1-1.212-1.535c-.27-.652-.406-1.382-.406-2.19 0-.818.135-1.55.406-2.198.271-.647.667-1.156 1.19-1.527.526-.377 1.176-.565 1.948-.565.768 0 1.433.188 1.995.564a3.701 3.701 0 0 1 1.317 1.528c.31.643.466 1.375.466 2.198 0 .813-.153 1.543-.459 2.19a3.736 3.736 0 0 1-1.294 1.535c-.557.377-1.21.565-1.957.565zm-3.92 3.387v-11.74h1.602v5.705h.226v6.035H57.08zm3.642-5.012c.471 0 .86-.118 1.166-.354a2.06 2.06 0 0 0 .678-.955 3.89 3.89 0 0 0 .225-1.355 3.79 3.79 0 0 0-.225-1.34 2.061 2.061 0 0 0-.7-.963c-.316-.24-.718-.361-1.204-.361-.462 0-.838.113-1.13.338-.29.221-.506.532-.647.934-.135.396-.203.86-.203 1.392 0 .527.068.99.203 1.392.14.402.36.715.655.941.301.22.695.331 1.182.331zm-14.479 1.4 3.417-10.837h2.657l3.416 10.837h-1.866l-3.1-9.724h.406l-3.063 9.724h-1.867zm1.904-2.348v-1.693h5.69v1.693h-5.69z"/><defs><clipPath id="a"><path fill="#fff" d="M20.263 5.666h22.204v22.667H20.263z"/></clipPath></defs></svg>