<svg xmlns="http://www.w3.org/2000/svg" width="103" height="34" fill="none"><g clip-path="url(#a)"><path fill="#4D4D4D" d="M21.358 10.47a34.945 34.945 0 0 0 5.288 1.764c2.214.55 5.231 1.07 7.803.611.424-.161.852-.332 1.275-.497A11.37 11.37 0 0 0 32.56 8.22c-2.34 1.214-5.004 1.559-7.637 1.856-1.188.135-2.38.31-3.564.393z"/><path fill="#333" d="M32.986 23.272c-2.301.646-4.354 1.817-6.729 2.214-2.454.41-4.995.73-7.515.69A11.32 11.32 0 0 0 35.24 22.6a59.18 59.18 0 0 1-2.258.672h.005z"/><path fill="#666" d="M24.995 15.787a49.915 49.915 0 0 0 4.166-1.1 30.442 30.442 0 0 1-1.79-.306c-3.72-.73-7.738-2.197-10.926-4.34a11.27 11.27 0 0 0-2.366 6.279c3.392.986 7.75.152 10.916-.529v-.004z"/><path fill="#4D4D4D" d="M26.322 23.507c1.59-.306 3.03-1.013 4.528-1.58a39.433 39.433 0 0 1-4.466-.276c-4.136-.506-8.297-1.72-12.236-3.227a11.27 11.27 0 0 0 2.402 5.668c3.24.397 6.628.022 9.772-.585z"/><path fill="#333" d="M36.379 19.788c.227-.89.345-1.825.345-2.79 0-.965-.11-1.8-.315-2.65a10.19 10.19 0 0 1-1.467.38c-3.711 1.423-7.475 2.658-11.423 3.322-.978.166-2.021.323-3.087.441a42.42 42.42 0 0 0 4.917 1.074c2.388.363 4.816.528 7.226.428 1.214-.048 2.55 0 3.804-.205zM24.922 8.129c1.96-.223 3.907-.476 5.706-1.18a11.258 11.258 0 0 0-5.24-1.283c-2.82 0-5.396 1.035-7.383 2.738 2.214.55 4.711-.022 6.912-.275h.005z"/></g><path fill="#333" d="M88.068 22.866v-4.094c0-.267-.019-.564-.055-.89a3.08 3.08 0 0 0-.26-.936 1.776 1.776 0 0 0-.598-.748c-.263-.194-.62-.291-1.071-.291-.241 0-.48.039-.716.118a1.644 1.644 0 0 0-.646.41c-.189.188-.341.45-.456.786-.116.331-.174.756-.174 1.276l-1.126-.48c0-.725.14-1.38.418-1.969a3.35 3.35 0 0 1 1.244-1.4c.545-.353 1.217-.528 2.015-.528.63 0 1.15.105 1.559.315.41.21.734.477.976.803.241.325.42.671.535 1.039.116.367.19.716.22 1.047.037.325.056.59.056.795v4.747h-1.921zm-5.897 0v-8.502h1.693V17h.228v5.865h-1.92zm-5.961.234c-.85 0-1.592-.191-2.227-.574a3.947 3.947 0 0 1-1.48-1.582c-.347-.677-.52-1.454-.52-2.33 0-.893.178-1.675.535-2.347a3.948 3.948 0 0 1 1.488-1.574c.635-.378 1.37-.567 2.204-.567.856 0 1.601.192 2.236.575a3.934 3.934 0 0 1 1.48 1.59c.352.672.528 1.446.528 2.322 0 .882-.179 1.661-.536 2.338a3.947 3.947 0 0 1-1.48 1.583c-.635.378-1.377.567-2.228.567zm0-1.779c.756 0 1.318-.252 1.685-.755.368-.504.551-1.155.551-1.953 0-.824-.186-1.48-.559-1.968-.372-.493-.931-.74-1.677-.74-.509 0-.928.116-1.26.347a1.993 1.993 0 0 0-.723.952c-.158.404-.237.874-.237 1.41 0 .823.187 1.482.56 1.975.377.488.93.732 1.66.732zm-8.01-8.249v-1.74h1.897v1.74H68.2zm0 9.793v-8.502h1.897v8.502H68.2zm-5.393.235c-1.05 0-1.902-.236-2.558-.708-.656-.472-1.055-1.136-1.197-1.992l1.937-.299c.1.42.32.75.661.992.341.241.772.362 1.291.362.457 0 .808-.089 1.055-.267a.877.877 0 0 0 .378-.748c0-.195-.047-.35-.142-.465-.089-.12-.288-.236-.598-.346-.31-.11-.785-.25-1.425-.417-.714-.19-1.28-.391-1.7-.607-.42-.22-.722-.48-.906-.779-.183-.3-.275-.661-.275-1.086 0-.53.139-.992.417-1.386.278-.393.667-.695 1.165-.905.499-.215 1.087-.323 1.764-.323.66 0 1.246.102 1.755.307.514.205.93.496 1.244.874.315.378.51.821.583 1.33l-1.937.347a1.22 1.22 0 0 0-.496-.858c-.278-.21-.65-.328-1.118-.355-.446-.026-.805.042-1.078.205-.273.158-.41.38-.41.67 0 .162.055.3.166.416.11.116.33.231.66.347.337.115.835.257 1.497.425.677.173 1.217.372 1.621.598.41.22.704.486.882.795.184.31.275.685.275 1.126 0 .856-.312 1.527-.936 2.015-.62.489-1.478.733-2.575.733zm-9.951.01c-.63 0-1.15-.105-1.56-.315a2.753 2.753 0 0 1-.975-.803 3.497 3.497 0 0 1-.536-1.04 5.554 5.554 0 0 1-.228-1.039 8.845 8.845 0 0 1-.047-.803v-4.747h1.92v4.094c0 .262.019.559.056.89.037.325.12.64.252.944.136.3.336.546.598.74.268.195.627.292 1.078.292.242 0 .48-.04.717-.119.236-.078.449-.212.638-.401.194-.194.349-.46.464-.795.116-.336.173-.761.173-1.275l1.126.48c0 .724-.142 1.38-.425 1.968a3.348 3.348 0 0 1-1.236 1.409c-.546.346-1.218.52-2.015.52zm2.779-.244v-2.638h-.229v-5.865h1.905v8.503h-1.676zm-14.209 0V11.53h6.826v1.897h-4.928v2.826h3.983v1.89h-3.983v4.723h-1.898z"/><defs><clipPath id="a"><path fill="#fff" d="M14.079 5.666h22.645v22.667H14.079z"/></clipPath></defs></svg>