<svg xmlns="http://www.w3.org/2000/svg" width="103" height="34" fill="none"><g fill-rule="evenodd" clip-path="url(#a)" clip-rule="evenodd"><path fill="#666" d="M24.498 15.47c-.552-3.066 1.766-5.507 4.632-5.364 2.012.102 4.064 1.537 4.085 4.085.012 1.802-1.182 3.442-2.499 3.961-.825.323-1.983.127-2.011-.854-.025-.891.854-.973 1.525-1.464 2.404-1.754.544-5.806-2.805-4.935-1.709.446-3.005 2.188-2.923 4.571h-.004z"/><path fill="#4D4D4D" d="M19.404 20.516c-1.533-8.48 4.886-15.234 12.81-14.833 5.564.282 11.243 4.252 11.296 11.292.037 4.997-3.267 9.53-6.914 10.958-2.277.89-5.482.355-5.56-2.36-.074-2.469 2.359-2.694 4.215-4.043 6.648-4.857 1.509-16.068-7.76-13.656-4.726 1.231-8.312 6.047-8.087 12.642z"/><path fill="#333" d="M22.486 17.44c-.948-5.278 3.042-9.48 7.977-9.235 3.463.175 7 2.645 7.032 7.032.025 3.107-2.032 5.932-4.301 6.82-1.419.555-3.414.22-3.463-1.468-.045-1.538 1.472-1.677 2.625-2.519 4.137-3.025.94-10-4.829-8.5-2.944.765-5.176 3.761-5.037 7.87h-.004z"/></g><path fill="#333" d="M80.186 22.94c-.853 0-1.598-.192-2.235-.576a3.959 3.959 0 0 1-1.484-1.588c-.348-.679-.522-1.458-.522-2.337 0-.895.18-1.679.537-2.353a3.96 3.96 0 0 1 1.493-1.579c.637-.379 1.374-.569 2.21-.569.858 0 1.606.193 2.243.577a3.946 3.946 0 0 1 1.484 1.595c.353.674.53 1.45.53 2.33 0 .884-.18 1.665-.537 2.344a3.96 3.96 0 0 1-1.485 1.588c-.637.378-1.382.568-2.234.568zm0-1.785c.757 0 1.32-.252 1.69-.758.368-.505.552-1.158.552-1.958 0-.826-.187-1.484-.56-1.974-.374-.495-.935-.742-1.682-.742-.511 0-.932.116-1.264.347a2 2 0 0 0-.726.956c-.158.405-.237.876-.237 1.413 0 .827.187 1.487.56 1.982.38.49.935.735 1.666.735zm-7.755 1.547v-4.106c0-.268-.018-.566-.055-.892a3.085 3.085 0 0 0-.26-.94 1.781 1.781 0 0 0-.6-.75c-.264-.194-.622-.292-1.075-.292-.242 0-.481.04-.718.119a1.649 1.649 0 0 0-.648.41c-.19.19-.342.453-.458.79-.115.331-.173.758-.173 1.28l-1.13-.483c0-.726.14-1.384.42-1.974.283-.59.7-1.058 1.247-1.405.547-.353 1.22-.53 2.021-.53.632 0 1.153.106 1.564.317.41.21.736.479.979.805.242.326.42.674.537 1.042.115.369.189.719.22 1.05.037.327.056.593.056.798v4.761H72.43zm-5.914 0v-11.37h1.698v5.985h.229v5.385h-1.927zm-5.363.238c-.88 0-1.63-.195-2.25-.584a3.89 3.89 0 0 1-1.43-1.611c-.326-.68-.492-1.448-.497-2.306.005-.874.176-1.647.513-2.321.342-.68.826-1.21 1.453-1.595.626-.39 1.371-.585 2.234-.585.969 0 1.787.245 2.456.735.674.484 1.113 1.147 1.319 1.99l-1.895.513c-.148-.458-.393-.813-.735-1.066a1.89 1.89 0 0 0-1.168-.387c-.495 0-.903.118-1.224.355a2.02 2.02 0 0 0-.711.964c-.153.41-.229.876-.229 1.397 0 .81.182 1.466.545 1.966.363.5.903.75 1.619.75.505 0 .902-.115 1.192-.347.295-.232.516-.566.663-1.003l1.943.434c-.264.87-.724 1.538-1.382 2.006-.658.463-1.464.695-2.416.695zm-12.942-.238v-11.37h7.344v1.784h-5.44v2.804h4.492v1.784h-4.493v3.214h5.44v1.784h-7.343z"/><defs><clipPath id="a"><path fill="#fff" d="M19.175 5.666H43.51v22.667H19.175z"/></clipPath></defs></svg>