<svg xmlns="http://www.w3.org/2000/svg" width="267" height="53" fill="none"><rect width="265.765" height="51.986" x=".285" y=".061" fill="#fff" rx="9.449"/><circle cx="26.272" cy="26.053" r="14.174" fill="#F0F2F5"/><g fill="#475367" clip-path="url(#a)"><path d="M22.726 24.576a3.248 3.248 0 0 1 6.442-.599.59.59 0 0 0 .395.453 2.954 2.954 0 0 1-.93 5.756.59.59 0 1 0 0 1.182 4.134 4.134 0 0 0 1.621-7.938 4.43 4.43 0 0 0-8.705 1.323 3.544 3.544 0 0 0 1.768 6.615.59.59 0 0 0 0-1.182 2.362 2.362 0 0 1-.916-4.54.59.59 0 0 0 .356-.625 3.284 3.284 0 0 1-.03-.445z"/><path d="M25.878 27.383a.59.59 0 0 1 .784 0l.886.787a.59.59 0 0 1-.688.953v2.835a.59.59 0 0 1-1.18 0v-2.835a.59.59 0 0 1-.688-.953l.886-.787z"/></g><path fill="#000" d="M54.923 15h1.245v4.49c0 .492-.116.925-.349 1.298-.23.374-.554.666-.973.876-.418.208-.907.312-1.466.312-.562 0-1.052-.104-1.47-.312a2.358 2.358 0 0 1-.973-.876 2.424 2.424 0 0 1-.346-1.298V15h1.245v4.386c0 .286.063.54.188.765.128.223.307.399.537.526.23.126.503.188.819.188.315 0 .588-.062.819-.188.232-.127.411-.303.537-.526.125-.224.187-.48.187-.765V15zm2.545 8.805v-7.087h1.194v.852h.07c.063-.125.152-.258.266-.4a1.42 1.42 0 0 1 .463-.365c.195-.103.443-.154.745-.154.398 0 .757.102 1.077.305.322.201.577.5.765.896.19.394.285.877.285 1.45 0 .566-.092 1.047-.278 1.443-.186.395-.438.698-.758.906a1.95 1.95 0 0 1-1.088.312c-.295 0-.54-.05-.735-.148a1.495 1.495 0 0 1-.47-.356 2.304 2.304 0 0 1-.271-.399h-.05v2.745h-1.215zm1.191-4.51c0 .333.047.625.141.876.096.25.234.446.413.587.181.139.4.208.657.208.269 0 .494-.072.675-.215.181-.145.318-.343.41-.594.093-.252.14-.54.14-.862 0-.32-.046-.604-.137-.852a1.28 1.28 0 0 0-.41-.584 1.07 1.07 0 0 0-.678-.212c-.259 0-.48.069-.66.205a1.258 1.258 0 0 0-.413.574 2.484 2.484 0 0 0-.138.869zM64.59 15v6.872h-1.215V15h1.214zm3.497 6.973c-.504 0-.94-.111-1.309-.332a2.255 2.255 0 0 1-.859-.93c-.201-.398-.302-.863-.302-1.396 0-.532.1-.999.302-1.4.204-.4.49-.71.86-.932.368-.221.804-.332 1.308-.332.503 0 .94.11 1.308.332.37.221.655.532.856.933.204.4.306.867.306 1.4 0 .532-.102.997-.306 1.395a2.233 2.233 0 0 1-.856.93c-.369.221-.805.332-1.308.332zm.007-.973c.272 0 .5-.075.684-.225.183-.152.32-.356.41-.61.091-.256.137-.54.137-.853 0-.316-.046-.6-.138-.856a1.354 1.354 0 0 0-.409-.614 1.036 1.036 0 0 0-.684-.228c-.28 0-.513.076-.698.228a1.378 1.378 0 0 0-.413.614c-.09.255-.134.54-.134.856 0 .313.044.597.134.852.092.255.23.459.413.61.185.15.418.226.698.226zm4.977.976c-.327 0-.621-.058-.883-.174a1.44 1.44 0 0 1-.617-.524c-.15-.23-.225-.514-.225-.852 0-.291.054-.531.161-.722.107-.19.254-.342.44-.456.185-.114.395-.2.627-.258.235-.06.478-.104.728-.131.302-.032.547-.06.735-.084.188-.027.325-.067.41-.121.087-.056.13-.142.13-.258v-.02c0-.253-.075-.449-.224-.588-.15-.138-.366-.208-.648-.208-.297 0-.534.065-.708.195a.965.965 0 0 0-.349.46l-1.134-.162c.09-.313.237-.574.443-.785.206-.212.457-.371.755-.476.297-.108.626-.161.986-.161.249 0 .496.029.742.087.246.058.47.154.674.289.204.131.367.312.49.54.126.228.188.513.188.855v3.45h-1.168v-.708h-.04a1.485 1.485 0 0 1-.312.403 1.503 1.503 0 0 1-.5.298 2.01 2.01 0 0 1-.701.111zm.315-.892c.244 0 .455-.049.634-.145.18-.098.317-.228.413-.389a.992.992 0 0 0 .148-.527v-.607a.57.57 0 0 1-.195.087c-.09.027-.19.05-.302.07-.112.02-.222.038-.332.054-.11.016-.205.03-.285.04a2.12 2.12 0 0 0-.487.121.809.809 0 0 0-.339.235.574.574 0 0 0-.124.383c0 .223.082.392.245.506.163.114.371.172.624.172zm5.54.879a1.95 1.95 0 0 1-1.087-.312c-.32-.208-.573-.51-.758-.906-.186-.396-.279-.877-.279-1.443 0-.573.094-1.056.282-1.45.19-.396.446-.695.769-.896a1.975 1.975 0 0 1 1.077-.305c.302 0 .55.051.745.154.194.1.349.223.463.366.114.14.202.274.265.4h.05V15h1.218v6.872h-1.194v-.812h-.074a2.07 2.07 0 0 1-.272.4 1.495 1.495 0 0 1-.47.355c-.194.098-.44.148-.735.148zm.34-.997c.257 0 .476-.07.657-.208a1.3 1.3 0 0 0 .413-.587c.094-.25.14-.543.14-.876 0-.333-.046-.623-.14-.87a1.237 1.237 0 0 0-.41-.573 1.059 1.059 0 0 0-.66-.205c-.271 0-.497.07-.679.212a1.28 1.28 0 0 0-.409.584 2.451 2.451 0 0 0-.138.852c0 .322.046.61.138.862.094.25.232.449.413.594.183.143.408.215.674.215zm6.799 2.839a2.456 2.456 0 0 1-.792-.128l.281-.946c.177.052.335.076.474.074a.58.58 0 0 0 .365-.13c.108-.084.198-.222.272-.417l.104-.278-1.869-5.262h1.289l1.188 3.892h.053l1.192-3.892h1.291l-2.063 5.778a2.315 2.315 0 0 1-.383.702 1.554 1.554 0 0 1-.584.45 1.944 1.944 0 0 1-.818.157zm6.762-1.832c-.503 0-.94-.111-1.309-.332a2.256 2.256 0 0 1-.859-.93c-.201-.398-.302-.863-.302-1.396 0-.532.1-.999.302-1.4.204-.4.49-.71.86-.932.368-.221.805-.332 1.308-.332s.94.11 1.309.332c.369.221.654.532.855.933.204.4.306.867.306 1.4 0 .532-.102.997-.306 1.395a2.233 2.233 0 0 1-.855.93c-.37.221-.806.332-1.309.332zm.007-.973c.273 0 .5-.075.684-.225.184-.152.32-.356.41-.61.091-.256.137-.54.137-.853 0-.316-.046-.6-.137-.856a1.354 1.354 0 0 0-.41-.614 1.036 1.036 0 0 0-.684-.228c-.28 0-.513.076-.698.228a1.377 1.377 0 0 0-.413.614c-.09.255-.134.54-.134.856 0 .313.044.597.134.852.092.255.23.459.413.61.185.15.418.226.698.226zm6.779-1.296v-2.986h1.215v5.154H99.65v-.916h-.054a1.55 1.55 0 0 1-.574.708c-.264.183-.59.275-.976.275a1.76 1.76 0 0 1-.896-.225 1.563 1.563 0 0 1-.604-.66c-.146-.291-.218-.643-.218-1.054v-3.282h1.215v3.094c0 .326.089.586.268.778a.918.918 0 0 0 .705.289c.178 0 .352-.044.52-.131.168-.087.305-.217.412-.39.11-.174.165-.392.165-.654zm2.464 2.168v-5.154h1.178v.859h.053a1.286 1.286 0 0 1 1.272-.933c.067 0 .142.003.225.01.085.005.155.012.211.024v1.117a1.266 1.266 0 0 0-.245-.047 2.255 2.255 0 0 0-.318-.024 1.23 1.23 0 0 0-.598.145 1.062 1.062 0 0 0-.564.973v3.03h-1.214zm8.003.09a1.95 1.95 0 0 1-1.087-.311c-.32-.208-.573-.51-.759-.906-.185-.396-.278-.877-.278-1.443 0-.573.094-1.056.282-1.45.19-.396.446-.695.768-.896a1.974 1.974 0 0 1 1.077-.305c.302 0 .551.051.745.154.195.1.349.223.463.366.114.14.203.274.265.4h.051V15h1.218v6.872h-1.195v-.812h-.074a2.063 2.063 0 0 1-.271.4 1.508 1.508 0 0 1-.47.355c-.195.098-.44.148-.735.148zm.339-.996c.257 0 .476-.07.657-.208.182-.14.319-.337.413-.587.094-.25.141-.543.141-.876 0-.333-.047-.623-.141-.87a1.233 1.233 0 0 0-.409-.573 1.058 1.058 0 0 0-.661-.205c-.271 0-.497.07-.678.212-.181.14-.318.335-.409.584a2.444 2.444 0 0 0-.138.852c0 .322.046.61.138.862.094.25.231.449.412.594.184.143.409.215.675.215zm5.948 1.007c-.503 0-.939-.111-1.308-.332a2.252 2.252 0 0 1-.859-.93c-.202-.398-.302-.863-.302-1.396 0-.532.1-.999.302-1.4.203-.4.49-.71.859-.932.369-.221.805-.332 1.308-.332.504 0 .94.11 1.309.332.369.221.655.532.856.933.203.4.305.867.305 1.4 0 .532-.102.997-.305 1.395a2.233 2.233 0 0 1-.856.93c-.369.221-.805.332-1.309.332zm.007-.973c.273 0 .501-.075.685-.225.183-.152.32-.356.409-.61.092-.256.138-.54.138-.853 0-.316-.046-.6-.138-.856a1.353 1.353 0 0 0-.409-.614 1.039 1.039 0 0 0-.685-.228c-.279 0-.512.076-.698.228a1.384 1.384 0 0 0-.413.614c-.089.255-.134.54-.134.856 0 .313.045.597.134.852.092.255.23.459.413.61.186.15.419.226.698.226zm5.742.973c-.514 0-.956-.113-1.325-.34a2.262 2.262 0 0 1-.849-.935c-.197-.4-.295-.862-.295-1.383 0-.523.1-.985.302-1.386a2.25 2.25 0 0 1 .852-.94c.369-.225.805-.338 1.309-.338.418 0 .788.077 1.11.231a1.9 1.9 0 0 1 .776.648c.192.277.302.602.328.973h-1.161a1.108 1.108 0 0 0-.335-.62c-.175-.168-.408-.252-.701-.252-.249 0-.467.067-.655.2a1.286 1.286 0 0 0-.439.571 2.324 2.324 0 0 0-.155.893c0 .351.052.653.155.906.103.25.247.444.432.58.188.135.409.202.662.202a1.1 1.1 0 0 0 .479-.1.957.957 0 0 0 .359-.3c.097-.13.163-.287.198-.473h1.161a2.02 2.02 0 0 1-.322.97 1.9 1.9 0 0 1-.758.658c-.32.156-.696.235-1.128.235zm6.491-2.269v-2.986h1.215v5.154h-1.178v-.916h-.054a1.543 1.543 0 0 1-.574.708c-.263.183-.589.275-.976.275a1.76 1.76 0 0 1-.896-.225 1.562 1.562 0 0 1-.604-.66c-.145-.291-.218-.643-.218-1.054v-3.282h1.215v3.094c0 .326.089.586.268.778.179.193.414.289.705.289.179 0 .352-.044.52-.131.168-.087.305-.217.413-.39a1.21 1.21 0 0 0 .164-.654zm2.464 2.168v-5.154h1.161v.876h.06c.108-.296.286-.526.534-.692a1.55 1.55 0 0 1 .889-.251c.349 0 .643.085.883.255.241.168.411.397.51.688h.053c.115-.287.307-.515.578-.685a1.78 1.78 0 0 1 .969-.258c.475 0 .862.15 1.161.45.3.3.45.736.45 1.311v3.46H137.1V18.6c0-.32-.085-.553-.255-.701a.91.91 0 0 0-.624-.225c-.293 0-.523.092-.688.275-.163.182-.245.418-.245.708v3.215h-1.191V18.55c0-.266-.081-.479-.242-.638a.844.844 0 0 0-.624-.238.883.883 0 0 0-.477.134.937.937 0 0 0-.342.373 1.163 1.163 0 0 0-.127.557v3.134h-1.215zm10.762.1c-.517 0-.963-.107-1.339-.321a2.183 2.183 0 0 1-.862-.92c-.201-.398-.302-.867-.302-1.406 0-.53.101-.995.302-1.396a2.29 2.29 0 0 1 .852-.94c.365-.225.793-.338 1.285-.338.318 0 .618.051.9.154.284.1.534.257.751.47.22.212.392.483.517.812.125.326.188.716.188 1.168v.372H139.9v-.819h3.061a1.309 1.309 0 0 0-.151-.62 1.101 1.101 0 0 0-.413-.433 1.16 1.16 0 0 0-.611-.158c-.248 0-.466.06-.654.181a1.248 1.248 0 0 0-.44.47 1.347 1.347 0 0 0-.157.634v.715c0 .3.054.557.164.772.11.212.263.376.46.49.197.111.427.167.691.167.177 0 .337-.024.48-.073.143-.052.267-.127.372-.225a.942.942 0 0 0 .239-.366l1.134.128c-.072.3-.208.561-.41.785a1.995 1.995 0 0 1-.765.517c-.311.12-.666.18-1.067.18zm4.535-3.12v3.02h-1.215v-5.154h1.161v.876h.06c.119-.289.308-.518.567-.688.262-.17.585-.255.97-.255.356 0 .666.076.93.228.266.152.472.372.617.661.148.289.22.639.218 1.05v3.282h-1.215v-3.094c0-.344-.089-.614-.268-.808-.177-.195-.422-.293-.735-.293a1.13 1.13 0 0 0-.567.142.98.98 0 0 0-.386.399 1.345 1.345 0 0 0-.137.634zm7.117-2.134v.94h-2.963v-.94h2.963zm-2.232-1.235h1.215v4.839c0 .163.025.288.074.376a.395.395 0 0 0 .201.174.775.775 0 0 0 .275.047 1.2 1.2 0 0 0 .208-.017 1.79 1.79 0 0 0 .148-.03l.205.95a2.273 2.273 0 0 1-.715.12 1.982 1.982 0 0 1-.822-.137 1.284 1.284 0 0 1-.581-.477c-.141-.214-.21-.483-.208-.805v-5.04z"/><path fill="#98A2B3" d="M51.112 37.234v-6.013h2.032c.471 0 .857.085 1.156.256.302.168.525.396.67.684.145.287.217.608.217.963 0 .354-.072.676-.217.966-.143.29-.364.52-.664.693-.3.17-.683.255-1.15.255h-1.457v-.646h1.433c.323 0 .582-.056.778-.167a.998.998 0 0 0 .426-.452c.09-.192.135-.409.135-.65 0-.24-.045-.455-.135-.645a.963.963 0 0 0-.429-.447c-.198-.11-.46-.164-.787-.164h-1.28v5.367h-.728zm7.104 0H56.36v-6.013h1.938c.583 0 1.082.12 1.497.361.415.24.733.583.955 1.03.22.447.331.981.331 1.604 0 .626-.111 1.166-.334 1.618-.223.45-.548.796-.975 1.04-.427.24-.945.36-1.556.36zm-1.128-.646h1.08c.498 0 .91-.096 1.237-.287.327-.192.57-.465.731-.82.16-.354.24-.776.24-1.265 0-.485-.078-.903-.237-1.254a1.754 1.754 0 0 0-.71-.81c-.316-.19-.708-.285-1.178-.285h-1.163v4.721zm5.215.646v-6.013h3.606v.646H63.03V33.9h2.607v.646H63.03v2.69h-.728zm9.093-4.51v.588h-2.432v-.588h2.431zm-1.704 4.51v-5.132c0-.258.061-.474.183-.646.12-.172.278-.301.472-.388a1.5 1.5 0 0 1 .614-.129 1.62 1.62 0 0 1 .658.117l-.2.6a3.301 3.301 0 0 0-.147-.044.891.891 0 0 0-.24-.027c-.23 0-.395.058-.497.173-.1.116-.15.285-.15.508v4.968h-.693zm4.321.094c-.407 0-.764-.097-1.072-.29a1.974 1.974 0 0 1-.716-.814c-.17-.348-.255-.755-.255-1.221 0-.47.085-.88.255-1.23a1.97 1.97 0 0 1 .716-.817c.308-.193.665-.29 1.072-.29.407 0 .763.097 1.069.29.307.194.546.466.716.817.172.35.259.76.259 1.23 0 .466-.087.873-.259 1.221-.17.349-.409.62-.716.814-.305.193-.662.29-1.069.29zm0-.622c.31 0 .564-.08.763-.238.2-.159.348-.367.444-.625.096-.259.144-.539.144-.84 0-.302-.048-.583-.144-.843a1.42 1.42 0 0 0-.444-.631c-.2-.16-.454-.24-.763-.24-.31 0-.564.08-.763.24-.2.16-.348.37-.444.631-.096.26-.144.541-.144.843 0 .301.048.581.144.84.096.258.244.466.444.625.2.159.454.238.763.238zm3.101.528v-4.51h.67v.682h.047c.082-.224.23-.405.446-.544s.458-.208.728-.208a7.46 7.46 0 0 1 .364.012v.704a2.024 2.024 0 0 0-.161-.026 1.589 1.589 0 0 0-.261-.02c-.22 0-.415.045-.588.137a1.013 1.013 0 0 0-.552.919v2.854h-.693zm3.077 0v-4.51h.67v.705h.058c.094-.24.246-.428.455-.56.21-.136.461-.203.755-.203.297 0 .545.067.742.202.2.133.356.32.467.561h.047c.116-.233.29-.418.52-.555.231-.139.508-.208.831-.208.403 0 .733.126.99.379.256.25.384.64.384 1.171v3.018h-.693v-3.018c0-.333-.09-.57-.273-.714a1.01 1.01 0 0 0-.643-.214c-.317 0-.563.096-.737.288-.174.19-.261.43-.261.722v2.936h-.705v-3.089a.811.811 0 0 0-.25-.619.894.894 0 0 0-.642-.238.95.95 0 0 0-.506.144c-.154.096-.28.23-.375.4a1.178 1.178 0 0 0-.141.584v2.818h-.693zm8.513.106c-.286 0-.545-.054-.778-.161a1.335 1.335 0 0 1-.555-.473 1.334 1.334 0 0 1-.205-.752c0-.258.05-.468.152-.628.102-.163.238-.29.409-.382.17-.092.358-.16.563-.205.208-.047.416-.084.626-.112.274-.035.496-.062.666-.08.172-.019.298-.051.376-.096.08-.045.12-.123.12-.235v-.023c0-.29-.079-.515-.237-.676-.157-.16-.395-.24-.714-.24-.33 0-.59.072-.778.217-.188.145-.32.3-.397.464l-.657-.235a1.58 1.58 0 0 1 .47-.64 1.76 1.76 0 0 1 .646-.323 2.68 2.68 0 0 1 .692-.094c.145 0 .312.017.5.053.19.033.373.102.549.208.178.106.326.265.443.479.118.213.176.499.176.857v2.971h-.693v-.61h-.035a1.222 1.222 0 0 1-.235.314 1.38 1.38 0 0 1-.437.285 1.685 1.685 0 0 1-.667.117zm.106-.622c.274 0 .505-.054.693-.162a1.099 1.099 0 0 0 .575-.954v-.634c-.029.035-.094.067-.194.096a3.255 3.255 0 0 1-.34.074 16.029 16.029 0 0 1-.664.088c-.18.023-.348.062-.505.114a.871.871 0 0 0-.376.232.591.591 0 0 0-.14.417c0 .241.089.423.267.547.18.12.408.182.684.182zm5.187-3.994v.588H91.66v-.588h2.337zm-1.656-1.08h.693v4.299c0 .195.029.342.085.44.06.096.134.16.224.194a.896.896 0 0 0 .29.047c.077 0 .14-.004.188-.012l.118-.024.14.623a1.447 1.447 0 0 1-.517.082c-.195 0-.387-.042-.575-.126a1.142 1.142 0 0 1-.464-.385 1.115 1.115 0 0 1-.182-.652v-4.486z"/><circle cx="99.619" cy="34.234" r="1.181" fill="#98A2B3"/><path fill="#98A2B3" d="M105.468 31.221h1.101l1.915 4.674h.07l1.915-4.674h1.101v6.013h-.864v-4.351h-.055l-1.774 4.343h-.716l-1.774-4.346h-.056v4.354h-.863v-6.013zm8.663 6.113c-.286 0-.545-.053-.775-.158a1.314 1.314 0 0 1-.55-.467c-.133-.204-.199-.453-.199-.749 0-.254.049-.464.147-.628.097-.165.23-.295.396-.39a2.06 2.06 0 0 1 .558-.218 5.51 5.51 0 0 1 .628-.112c.27-.03.49-.056.658-.076a.965.965 0 0 0 .367-.103c.076-.047.114-.123.114-.229v-.02c0-.257-.072-.455-.217-.596-.143-.141-.356-.212-.64-.212-.296 0-.528.066-.699.197-.168.13-.285.273-.349.432l-.825-.188c.098-.274.241-.496.428-.664.19-.17.409-.294.655-.37a2.56 2.56 0 0 1 .778-.117c.18 0 .371.021.573.064.203.041.393.118.569.23.179.11.324.27.438.478.114.205.17.473.17.801v2.995h-.857v-.616h-.035a1.247 1.247 0 0 1-.256.334c-.113.11-.259.201-.437.274a1.699 1.699 0 0 1-.64.108zm.191-.705c.242 0 .45-.047.622-.143.174-.096.306-.221.396-.376a.975.975 0 0 0 .138-.502v-.582a.455.455 0 0 1-.182.088 2.865 2.865 0 0 1-.302.068 34.59 34.59 0 0 1-.332.05l-.27.035c-.17.022-.326.058-.467.109a.808.808 0 0 0-.335.22.551.551 0 0 0-.123.376c0 .217.08.381.241.493.16.11.365.164.614.164zm3.897-3.905.995 1.756 1.004-1.756h.96l-1.406 2.255 1.418 2.255h-.96l-1.016-1.685-1.013 1.685h-.963l1.403-2.255-1.386-2.255h.964zm4.439 4.566a.572.572 0 0 1-.414-.17.57.57 0 0 1-.173-.417c0-.16.058-.298.173-.411a.567.567 0 0 1 .414-.173c.161 0 .299.057.414.173a.55.55 0 0 1 .173.41.558.558 0 0 1-.082.297.608.608 0 0 1-.211.212.56.56 0 0 1-.294.08zm5.828.027c-.368 0-.699-.07-.993-.212a1.808 1.808 0 0 1-.699-.587 1.554 1.554 0 0 1-.279-.852h.881a.883.883 0 0 0 .344.638c.207.166.456.25.746.25a1.14 1.14 0 0 0 1.036-.602c.104-.189.156-.403.156-.644 0-.244-.053-.463-.159-.654a1.171 1.171 0 0 0-.437-.453 1.238 1.238 0 0 0-.635-.167c-.182 0-.365.031-.549.094a1.281 1.281 0 0 0-.446.246l-.831-.123.338-3.03h3.306V32h-2.552l-.19 1.683h.035c.117-.114.273-.209.467-.285a1.71 1.71 0 0 1 .628-.115 1.842 1.842 0 0 1 1.656.975c.166.3.249.644.247 1.034a2.01 2.01 0 0 1-.265 1.042 1.914 1.914 0 0 1-.734.722 2.154 2.154 0 0 1-1.071.262zm3.224-6.096h1.101l1.915 4.674h.07l1.915-4.674h1.101v6.013h-.864v-4.351h-.055l-1.774 4.343h-.716l-1.774-4.346h-.056v4.354h-.863v-6.013zm7.421 6.013v-6.013h2.202c.426 0 .78.07 1.06.212.28.139.489.327.628.566.139.237.209.504.209.802 0 .25-.046.462-.138.634-.092.17-.216.307-.37.411a1.633 1.633 0 0 1-.505.223v.059a1.2 1.2 0 0 1 .584.194c.192.117.35.284.476.502.125.217.187.481.187.793 0 .307-.072.583-.217.828a1.482 1.482 0 0 1-.663.578c-.3.14-.683.211-1.148.211h-2.305zm.907-.778h1.309c.435 0 .746-.084.934-.252a.812.812 0 0 0 .282-.632.99.99 0 0 0-.144-.522 1.03 1.03 0 0 0-.411-.379 1.317 1.317 0 0 0-.628-.14h-1.342v1.925zm0-2.633h1.215c.204 0 .387-.04.55-.118a.963.963 0 0 0 .39-.329.871.871 0 0 0 .147-.505.835.835 0 0 0-.261-.625c-.175-.169-.442-.253-.802-.253h-1.239v1.83z"/><rect width="47.899" height="21.449" x="206.34" y="15.329" fill="url(#b)" rx="4.725"/><path fill="#262626" d="M220.486 23.04h1.089v3.929c0 .43-.102.81-.305 1.136a2.067 2.067 0 0 1-.852.767c-.366.182-.793.273-1.283.273-.491 0-.92-.091-1.286-.273a2.058 2.058 0 0 1-.851-.767 2.117 2.117 0 0 1-.303-1.136V23.04h1.09v3.838c0 .25.054.474.164.67.112.195.268.349.47.46.201.11.44.165.716.165.276 0 .515-.055.717-.165.203-.111.36-.265.47-.46.109-.196.164-.42.164-.67V23.04zm2.226 7.705v-6.201h1.046v.745h.061c.055-.11.132-.226.232-.349.1-.125.235-.232.405-.32.171-.09.388-.135.652-.135.349 0 .663.09.943.267.282.176.505.438.669.784.167.345.25.767.25 1.269 0 .495-.082.916-.244 1.262-.162.347-.384.61-.664.793a1.704 1.704 0 0 1-.951.273 1.42 1.42 0 0 1-.643-.13 1.315 1.315 0 0 1-.411-.31 2.022 2.022 0 0 1-.238-.35h-.044v2.402h-1.063zm1.043-3.946c0 .291.041.547.123.766.084.22.204.39.361.514a.92.92 0 0 0 .576.182.924.924 0 0 0 .59-.188c.158-.127.278-.3.358-.52a2.16 2.16 0 0 0 .123-.754c0-.28-.04-.529-.12-.746-.08-.217-.2-.388-.358-.51a.939.939 0 0 0-.593-.186c-.227 0-.42.06-.579.18a1.1 1.1 0 0 0-.361.501c-.08.216-.12.47-.12.76zm5.188-3.759v6.014h-1.063V23.04h1.063zm3.06 6.102c-.44 0-.822-.097-1.145-.29a1.974 1.974 0 0 1-.752-.814c-.176-.349-.264-.756-.264-1.222 0-.465.088-.874.264-1.224a1.97 1.97 0 0 1 .752-.816c.323-.194.705-.291 1.145-.291.44 0 .822.097 1.145.29.323.195.573.467.749.817.178.35.267.759.267 1.224 0 .466-.089.873-.267 1.222a1.95 1.95 0 0 1-.749.813c-.323.194-.705.29-1.145.29zm.006-.852a.917.917 0 0 0 .599-.196c.16-.134.28-.312.358-.535.08-.223.12-.472.12-.746 0-.276-.04-.525-.12-.748a1.186 1.186 0 0 0-.358-.538.908.908 0 0 0-.599-.2.933.933 0 0 0-.611.2 1.21 1.21 0 0 0-.361.538 2.258 2.258 0 0 0-.117.748c0 .274.039.523.117.746.08.223.201.401.361.535a.942.942 0 0 0 .611.196zm4.355.855c-.286 0-.543-.051-.772-.153a1.26 1.26 0 0 1-.54-.458c-.132-.202-.197-.45-.197-.746 0-.254.047-.465.141-.631a1.1 1.1 0 0 1 .384-.4c.163-.1.346-.175.549-.226.206-.052.418-.09.638-.114.264-.027.478-.052.643-.073a.958.958 0 0 0 .358-.106c.076-.049.114-.124.114-.226v-.018c0-.221-.065-.392-.196-.514-.132-.121-.32-.182-.567-.182-.26 0-.467.057-.62.17a.85.85 0 0 0-.305.403l-.992-.141c.078-.274.207-.503.387-.687.18-.186.4-.325.661-.417.26-.094.548-.141.863-.141.217 0 .434.026.649.076.215.051.412.135.59.253.178.115.321.273.429.473.109.2.164.449.164.748v3.019h-1.022v-.62h-.035a1.274 1.274 0 0 1-.71.614 1.768 1.768 0 0 1-.614.097zm.276-.781c.213 0 .398-.042.555-.127a.93.93 0 0 0 .361-.34.869.869 0 0 0 .129-.461v-.532a.498.498 0 0 1-.17.077 2.377 2.377 0 0 1-.264.061 7.98 7.98 0 0 1-.291.047l-.25.036c-.158.021-.3.056-.425.105a.707.707 0 0 0-.297.206.504.504 0 0 0-.108.335c0 .195.071.343.214.443.143.1.325.15.546.15zm4.848.769c-.355 0-.672-.091-.952-.273a1.85 1.85 0 0 1-.663-.793c-.163-.346-.244-.767-.244-1.262 0-.502.082-.924.247-1.269.166-.346.39-.608.672-.784a1.73 1.73 0 0 1 .943-.267c.264 0 .481.045.651.135.171.088.306.195.406.32.099.123.177.24.232.35h.044v-2.25h1.065v6.014h-1.045v-.71h-.064a1.903 1.903 0 0 1-.238.349 1.315 1.315 0 0 1-.411.31 1.41 1.41 0 0 1-.643.13zm.296-.872c.225 0 .417-.06.576-.182a1.14 1.14 0 0 0 .361-.514c.082-.22.123-.475.123-.766 0-.292-.041-.545-.123-.76-.08-.216-.2-.383-.358-.503a.929.929 0 0 0-.579-.179.937.937 0 0 0-.593.185 1.114 1.114 0 0 0-.358.51 2.15 2.15 0 0 0-.121.747c0 .282.041.533.121.754.082.22.202.393.361.52a.93.93 0 0 0 .59.188z"/><defs><linearGradient id="b" x1="230.289" x2="230.289" y1="15.329" y2="36.779" gradientUnits="userSpaceOnUse"><stop stop-color="#B8FF33"/><stop offset="1" stop-color="#DBFF99"/></linearGradient><clipPath id="a"><path fill="#fff" d="M19.184 18.966h14.174V33.14H19.184z"/></clipPath></defs></svg>