<svg xmlns="http://www.w3.org/2000/svg" width="267" height="53" fill="none"><rect width="265.765" height="51.986" x=".285" y=".062" fill="#fff" rx="9.449"/><g clip-path="url(#a)"><path fill="#E4E7EC" fill-rule="evenodd" d="m33.36 11.88 4.724 4.725v-3.577 26.019a1.18 1.18 0 0 1-1.18 1.181H15.641a1.181 1.181 0 0 1-1.181-1.181V13.061c0-.652.529-1.181 1.181-1.181H33.36z" clip-rule="evenodd"/><path fill="#98A2B3" fill-rule="evenodd" d="M33.36 11.88v4.725h4.724L33.36 11.88z" clip-rule="evenodd"/><rect width="25.986" height="11.812" x="13.277" y="23.691" fill="#CC400C" rx="1.181"/><path fill="#fff" d="M17.605 33.033v-6.872h2.578c.527 0 .97.099 1.328.295.36.197.632.468.816.813.185.342.278.731.278 1.167 0 .44-.093.832-.278 1.175a1.99 1.99 0 0 1-.822.808c-.363.195-.809.292-1.34.292h-1.707v-1.023h1.54c.309 0 .561-.054.758-.161a1.02 1.02 0 0 0 .437-.443c.096-.188.144-.404.144-.648a1.38 1.38 0 0 0-.144-.644.98.98 0 0 0-.44-.433c-.197-.105-.45-.158-.762-.158h-1.14v5.832h-1.245zm8.41 0h-2.328v-6.872h2.375c.683 0 1.269.138 1.759.413.492.273.87.665 1.134 1.178.264.512.396 1.125.396 1.839 0 .715-.133 1.33-.4 1.845a2.76 2.76 0 0 1-1.144 1.185c-.496.275-1.093.412-1.791.412zm-1.083-1.077h1.023c.479 0 .878-.087 1.198-.261.32-.177.56-.44.722-.789.16-.351.241-.79.241-1.315 0-.526-.08-.962-.241-1.31a1.656 1.656 0 0 0-.715-.781c-.313-.174-.703-.262-1.168-.262h-1.06v4.718zm5.602 1.077v-6.872h4.402v1.044H31.78v1.866h2.855v1.043H31.78v2.92h-1.245z"/></g><path fill="#000" d="M56.718 15v6.873H55.61l-3.238-4.681h-.057v4.681H51.07v-6.872h1.114l3.235 4.684h.06v-4.684h1.239zm2.785 6.977c-.326 0-.62-.058-.882-.174a1.44 1.44 0 0 1-.617-.524c-.15-.23-.225-.514-.225-.852 0-.291.053-.532.16-.722.108-.19.255-.342.44-.456.186-.114.395-.2.628-.258.235-.06.477-.104.728-.131.302-.032.547-.06.735-.084.188-.027.324-.067.41-.121.087-.056.13-.142.13-.258v-.02c0-.253-.075-.449-.225-.588-.15-.138-.365-.208-.647-.208-.298 0-.534.065-.708.195a.966.966 0 0 0-.35.46l-1.133-.162a1.81 1.81 0 0 1 .442-.785c.206-.212.458-.371.755-.476.298-.108.627-.161.987-.161.248 0 .495.029.742.087.246.058.47.154.674.288.204.133.367.313.49.54.125.229.188.514.188.857v3.449h-1.168v-.708h-.04a1.483 1.483 0 0 1-.312.403 1.501 1.501 0 0 1-.5.298c-.2.074-.433.111-.701.111zm.316-.893c.244 0 .455-.048.634-.144.18-.098.317-.228.413-.39a.99.99 0 0 0 .148-.526v-.607a.57.57 0 0 1-.195.087c-.09.027-.19.05-.302.07-.112.02-.223.038-.332.054-.11.016-.205.03-.286.04a2.12 2.12 0 0 0-.486.121.808.808 0 0 0-.34.235.574.574 0 0 0-.123.383c0 .223.081.392.245.506.163.114.371.171.624.171zm3.627.789v-5.154h1.161v.876h.06c.108-.296.286-.526.534-.692a1.55 1.55 0 0 1 .89-.251c.349 0 .643.085.882.255.242.168.412.397.51.688h.054c.114-.287.306-.515.577-.685a1.78 1.78 0 0 1 .97-.258c.474 0 .861.15 1.16.45.3.3.45.736.45 1.311v3.46h-1.218v-3.272c0-.32-.085-.553-.255-.701a.91.91 0 0 0-.624-.225c-.293 0-.522.092-.688.275-.163.181-.245.418-.245.708v3.215h-1.19v-3.322c0-.266-.082-.479-.243-.638-.158-.158-.366-.238-.624-.238a.88.88 0 0 0-.476.134.936.936 0 0 0-.342.373 1.162 1.162 0 0 0-.128.557v3.134h-1.215zm10.763.1c-.517 0-.963-.107-1.34-.321a2.182 2.182 0 0 1-.862-.92c-.201-.398-.302-.867-.302-1.406 0-.53.101-.995.302-1.396.204-.402.488-.716.853-.94.364-.225.793-.338 1.285-.338.318 0 .617.051.9.154.283.1.534.257.75.47.22.212.392.483.518.812.125.326.188.716.188 1.168v.372h-4.225v-.819h3.06a1.306 1.306 0 0 0-.15-.62 1.097 1.097 0 0 0-.414-.433 1.16 1.16 0 0 0-.61-.158c-.249 0-.467.06-.655.181a1.249 1.249 0 0 0-.44.47 1.352 1.352 0 0 0-.157.634v.715c0 .3.055.557.164.772.11.212.263.376.46.49.197.111.427.167.691.167.177 0 .337-.024.48-.073.143-.052.268-.127.373-.225a.937.937 0 0 0 .238-.366l1.134.128c-.071.3-.208.561-.41.785a2 2 0 0 1-.764.517 2.95 2.95 0 0 1-1.067.18zm7.911 0c-.503 0-.94-.11-1.308-.331a2.256 2.256 0 0 1-.86-.93c-.2-.398-.301-.863-.301-1.396 0-.532.1-.999.302-1.4.203-.4.49-.71.859-.932.369-.222.805-.332 1.308-.332.504 0 .94.11 1.309.332.37.221.654.532.856.933.203.4.305.867.305 1.4 0 .532-.102.997-.305 1.395a2.234 2.234 0 0 1-.856.93c-.37.221-.805.332-1.309.332zm.007-.972c.273 0 .501-.075.685-.225.183-.152.32-.356.409-.611a2.5 2.5 0 0 0 .138-.852c0-.316-.046-.6-.138-.856a1.355 1.355 0 0 0-.41-.614 1.037 1.037 0 0 0-.684-.228c-.28 0-.512.076-.698.228a1.378 1.378 0 0 0-.413.614c-.09.255-.134.54-.134.856 0 .313.045.597.134.852.092.255.23.459.413.61.186.15.418.226.698.226zm6.105-4.282v.94h-3.047v-.94h3.047zm-2.285 5.154v-5.64c0-.348.071-.636.214-.867.146-.23.34-.402.584-.516.244-.114.515-.171.812-.171.21 0 .397.016.56.05.164.034.285.064.363.09l-.242.94a2.14 2.14 0 0 0-.194-.047 1.176 1.176 0 0 0-.262-.027c-.226 0-.386.055-.48.165-.092.107-.137.261-.137.463v5.56h-1.218zm7.493.09a1.95 1.95 0 0 1-1.088-.311c-.32-.209-.572-.51-.758-.906-.186-.396-.278-.877-.278-1.443 0-.573.093-1.056.281-1.45.19-.396.447-.695.769-.896a1.974 1.974 0 0 1 1.077-.305c.302 0 .55.051.745.154.195.1.349.223.463.366.114.14.203.274.265.4h.05V15h1.219v6.872H94.99v-.812h-.074a2.07 2.07 0 0 1-.272.4 1.493 1.493 0 0 1-.47.355c-.194.098-.439.148-.734.148zm.339-.996c.257 0 .476-.07.657-.208a1.3 1.3 0 0 0 .413-.587c.094-.25.141-.543.141-.876 0-.333-.047-.623-.141-.87a1.237 1.237 0 0 0-.41-.573 1.058 1.058 0 0 0-.66-.205c-.271 0-.497.07-.678.212a1.28 1.28 0 0 0-.41.584 2.448 2.448 0 0 0-.137.852c0 .322.046.61.137.862.094.25.232.449.413.594.183.143.408.215.675.215zm5.948 1.007c-.503 0-.94-.111-1.308-.332a2.256 2.256 0 0 1-.86-.93c-.2-.398-.302-.863-.302-1.396 0-.532.101-.999.302-1.4.204-.4.49-.71.86-.932.369-.222.805-.332 1.308-.332.504 0 .94.11 1.309.332.369.221.654.532.856.933.203.4.305.867.305 1.4 0 .532-.102.997-.305 1.395a2.24 2.24 0 0 1-.856.93c-.369.221-.805.332-1.309.332zm.007-.973c.273 0 .501-.075.685-.225.183-.152.319-.356.409-.611a2.5 2.5 0 0 0 .137-.852c0-.316-.045-.6-.137-.856a1.362 1.362 0 0 0-.409-.614 1.039 1.039 0 0 0-.685-.228c-.28 0-.512.076-.698.228a1.38 1.38 0 0 0-.413.614c-.09.255-.134.54-.134.856 0 .313.045.597.134.852.092.255.23.459.413.61.186.15.418.226.698.226zm5.742.973c-.514 0-.956-.113-1.325-.34a2.262 2.262 0 0 1-.849-.935c-.197-.4-.295-.862-.295-1.383 0-.523.1-.985.302-1.386a2.25 2.25 0 0 1 .852-.94c.369-.225.805-.338 1.309-.338.418 0 .788.077 1.11.231.325.152.583.368.775.648.193.277.302.602.329.973h-1.161a1.114 1.114 0 0 0-.335-.62c-.175-.169-.409-.253-.702-.253-.248 0-.466.068-.654.202a1.295 1.295 0 0 0-.44.57 2.326 2.326 0 0 0-.154.893c0 .351.051.653.154.906.103.25.248.444.433.58.188.135.409.202.661.202.179 0 .339-.034.48-.1a.965.965 0 0 0 .359-.3c.096-.13.162-.287.198-.473h1.161a2.02 2.02 0 0 1-.322.97c-.186.28-.438.499-.758.658-.32.156-.696.235-1.128.235zm6.491-2.269V16.72h1.215v5.154h-1.178v-.916h-.054a1.55 1.55 0 0 1-.574.708c-.264.183-.589.275-.976.275-.338 0-.637-.075-.896-.225a1.561 1.561 0 0 1-.604-.66c-.146-.291-.218-.643-.218-1.054V16.72h1.214v3.094c0 .326.09.586.269.778.179.193.414.289.705.289.179 0 .352-.044.52-.131.167-.087.305-.217.412-.39.11-.174.165-.392.165-.654zm2.464 2.168v-5.154h1.161v.876h.06c.108-.296.285-.526.534-.692.248-.167.544-.251.889-.251.349 0 .643.085.882.255.242.168.412.397.511.688h.053a1.41 1.41 0 0 1 .577-.685 1.78 1.78 0 0 1 .97-.258c.474 0 .861.15 1.161.45.3.3.45.736.45 1.311v3.46h-1.218v-3.272c0-.32-.085-.553-.255-.701a.91.91 0 0 0-.624-.225c-.293 0-.523.092-.688.275-.164.181-.245.418-.245.708v3.215h-1.192v-3.322c0-.266-.08-.479-.241-.638a.844.844 0 0 0-.624-.238.88.88 0 0 0-.477.134.936.936 0 0 0-.342.373 1.163 1.163 0 0 0-.128.557v3.134h-1.214zm10.762.1c-.517 0-.963-.107-1.339-.321a2.182 2.182 0 0 1-.862-.92c-.202-.398-.302-.867-.302-1.406 0-.53.1-.995.302-1.396.203-.402.487-.716.852-.94.365-.225.793-.338 1.285-.338.318 0 .618.051.9.154.284.1.534.257.751.47.219.212.392.483.517.812.125.326.188.716.188 1.168v.372h-4.225v-.819h3.061a1.32 1.32 0 0 0-.151-.62 1.1 1.1 0 0 0-.413-.433 1.162 1.162 0 0 0-.611-.158c-.248 0-.466.06-.654.181a1.248 1.248 0 0 0-.44.47 1.36 1.36 0 0 0-.158.634v.715c0 .3.055.557.165.772.109.212.263.376.46.49.196.111.427.167.691.167.177 0 .336-.024.48-.073.143-.052.267-.127.372-.225a.93.93 0 0 0 .238-.366l1.135.128c-.072.3-.208.561-.41.785a1.994 1.994 0 0 1-.765.517 2.95 2.95 0 0 1-1.067.18zm4.534-3.12v3.02h-1.214v-5.154h1.161v.876h.06a1.48 1.48 0 0 1 .567-.688c.262-.17.585-.255.97-.255.356 0 .665.076.929.228.267.152.472.372.618.66.147.29.22.64.218 1.051v3.282h-1.215v-3.094c0-.344-.089-.614-.268-.808-.177-.195-.422-.293-.735-.293-.213 0-.402.047-.567.142a.973.973 0 0 0-.386.399 1.345 1.345 0 0 0-.138.634zm7.118-2.134v.94h-2.963v-.94h2.963zm-2.232-1.235h1.215v4.839a.77.77 0 0 0 .074.376.395.395 0 0 0 .201.174.771.771 0 0 0 .275.047 1.435 1.435 0 0 0 .356-.047l.205.95a2.282 2.282 0 0 1-.715.12 1.977 1.977 0 0 1-.822-.137 1.278 1.278 0 0 1-.581-.477c-.141-.214-.21-.483-.208-.805v-5.04zm3.996 6.463a.72.72 0 0 1-.524-.215.694.694 0 0 1-.214-.523.685.685 0 0 1 .214-.517.72.72 0 0 1 .524-.215c.197 0 .368.072.513.215a.703.703 0 0 1 .118.89.771.771 0 0 1-.269.268.696.696 0 0 1-.362.097zm1.992 1.859v-7.087h1.195v.852h.07c.063-.125.151-.258.265-.4a1.43 1.43 0 0 1 .463-.365c.195-.103.443-.154.745-.154.399 0 .758.101 1.078.305.322.201.577.5.765.896.19.394.285.877.285 1.45 0 .566-.093 1.047-.279 1.443-.185.396-.438.698-.758.906a1.95 1.95 0 0 1-1.087.312c-.296 0-.541-.05-.735-.148a1.496 1.496 0 0 1-.47-.356 2.328 2.328 0 0 1-.272-.399h-.05v2.745h-1.215zm1.191-4.51c0 .333.047.625.141.876.097.25.234.446.413.587.181.139.401.208.658.208.268 0 .493-.072.674-.215.181-.145.318-.343.41-.594.094-.253.141-.54.141-.862 0-.32-.046-.604-.138-.852a1.283 1.283 0 0 0-.409-.584 1.074 1.074 0 0 0-.678-.212c-.26 0-.48.069-.661.205a1.26 1.26 0 0 0-.413.574 2.48 2.48 0 0 0-.138.869zm6.628 2.668c-.405 0-.768-.104-1.087-.312a2.129 2.129 0 0 1-.759-.906c-.185-.396-.278-.877-.278-1.443 0-.573.094-1.056.282-1.45.19-.396.446-.695.768-.896a1.974 1.974 0 0 1 1.077-.305c.302 0 .55.051.745.154.195.1.349.223.463.366.114.14.203.274.265.4h.051V15h1.218v6.872h-1.195v-.812h-.074a2.028 2.028 0 0 1-.272.4 1.492 1.492 0 0 1-.469.355c-.195.098-.44.148-.735.148zm.339-.997c.257 0 .476-.07.657-.208.182-.141.319-.337.413-.587.094-.25.141-.543.141-.876 0-.333-.047-.623-.141-.87a1.24 1.24 0 0 0-.409-.573 1.06 1.06 0 0 0-.661-.205c-.271 0-.497.07-.678.212a1.285 1.285 0 0 0-.41.584 2.467 2.467 0 0 0-.137.852c0 .322.046.61.137.862.094.25.232.449.413.594.184.143.408.215.675.215zm6.311-4.248v.94h-3.047v-.94h3.047zm-2.285 5.154v-5.64c0-.348.071-.636.214-.867.146-.23.34-.402.584-.516.244-.114.515-.171.812-.171.211 0 .397.016.561.05.163.034.284.064.362.09l-.242.94a2.102 2.102 0 0 0-.194-.047 1.179 1.179 0 0 0-.262-.027c-.226 0-.386.055-.48.165-.091.107-.137.261-.137.463v5.56h-1.218z"/><path fill="#98A2B3" d="M53.12 31.222v6.013h-.729v-5.25h-.035l-1.468.975v-.74l1.503-.998h.728zm3.843 0v6.013h-.728v-5.25h-.036l-1.468.975v-.74l1.504-.998h.728zm7.449 1.503a.922.922 0 0 0-.429-.693c-.25-.164-.558-.246-.922-.246-.266 0-.499.043-.699.129a1.116 1.116 0 0 0-.464.355.852.852 0 0 0-.164.514c0 .16.038.299.115.414a.997.997 0 0 0 .3.285c.12.074.248.136.38.185.134.047.256.085.368.114l.61.165c.157.041.331.098.523.17.194.073.379.171.555.297.178.123.325.282.44.475.116.194.174.432.174.714 0 .325-.085.618-.256.88a1.728 1.728 0 0 1-.74.626c-.323.155-.715.232-1.177.232-.43 0-.804-.07-1.119-.208a1.783 1.783 0 0 1-.74-.582 1.659 1.659 0 0 1-.302-.866h.752a.94.94 0 0 0 .229.564c.135.147.305.256.51.329.208.07.431.105.67.105.278 0 .527-.045.749-.135.22-.092.396-.219.525-.381a.905.905 0 0 0 .194-.576c0-.2-.056-.362-.167-.487a1.228 1.228 0 0 0-.44-.306 4.628 4.628 0 0 0-.59-.205l-.74-.212c-.47-.135-.843-.328-1.117-.578-.274-.25-.41-.578-.41-.984 0-.336.09-.63.273-.88.184-.253.43-.449.74-.588a2.497 2.497 0 0 1 1.042-.211c.387 0 .732.07 1.033.208.302.137.54.325.717.564.178.239.272.51.282.813h-.705zm3.78 4.604c-.434 0-.808-.096-1.124-.287a1.931 1.931 0 0 1-.725-.81c-.168-.35-.252-.754-.252-1.216 0-.462.084-.87.252-1.222.17-.354.407-.63.71-.828.306-.2.662-.3 1.07-.3.234 0 .466.04.695.118.23.078.438.206.626.382.188.174.337.405.449.693.111.288.167.642.167 1.063v.293h-3.476v-.599h2.772a1.47 1.47 0 0 0-.153-.68 1.151 1.151 0 0 0-1.08-.647c-.277 0-.515.069-.717.206-.2.135-.353.31-.461.528-.108.217-.161.45-.161.699v.4c0 .34.058.629.176.865.12.235.285.414.496.538.211.121.457.182.737.182a1.5 1.5 0 0 0 .493-.077c.149-.052.277-.13.385-.234.108-.106.19-.237.25-.394l.669.188c-.07.227-.189.427-.355.6-.167.17-.372.303-.617.398-.245.094-.52.141-.825.141zm2.922 1.598v-6.202h.67v.717h.082a6.09 6.09 0 0 1 .212-.3c.091-.123.223-.233.393-.329.172-.097.405-.146.699-.146.38 0 .714.095 1.004.285.29.19.516.459.678.807.163.348.244.76.244 1.233 0 .478-.081.892-.244 1.242a1.922 1.922 0 0 1-.675.81c-.288.19-.62.285-.996.285-.29 0-.521-.048-.695-.144a1.29 1.29 0 0 1-.403-.331 4.434 4.434 0 0 1-.217-.312h-.059v2.385h-.693zm.682-3.947c0 .341.05.641.15.902.1.258.245.46.437.608.192.144.427.217.705.217.29 0 .53-.077.725-.23a1.4 1.4 0 0 0 .44-.622c.1-.262.15-.554.15-.875a2.37 2.37 0 0 0-.147-.857 1.325 1.325 0 0 0-.437-.608c-.194-.15-.438-.226-.731-.226-.282 0-.52.072-.711.215-.192.14-.337.338-.435.593a2.437 2.437 0 0 0-.146.883zm5.39 1.433-.047.317a6.407 6.407 0 0 1-.152.717 13.52 13.52 0 0 1-.209.72 21.89 21.89 0 0 1-.179.536h-.528l.1-.496a18.95 18.95 0 0 0 .228-1.465l.036-.329h.751zm3.598.822v-.528l1.985-2.173c.233-.254.424-.476.575-.663.151-.19.263-.369.335-.535.074-.168.112-.344.112-.528a.975.975 0 0 0-.564-.908 1.333 1.333 0 0 0-.587-.126c-.231 0-.433.048-.605.144a.99.99 0 0 0-.397.396c-.092.17-.138.37-.138.6h-.693c0-.353.082-.662.244-.929a1.7 1.7 0 0 1 .664-.622c.282-.149.598-.223.948-.223.352 0 .665.074.937.223.272.149.485.35.64.602.154.252.232.533.232.843 0 .22-.04.437-.12.648-.079.21-.216.444-.412.702-.194.257-.463.57-.807.94l-1.35 1.444v.047h2.794v.646h-3.793zm6.967.083c-.442 0-.819-.12-1.13-.362-.311-.242-.549-.594-.713-1.054-.165-.462-.247-1.02-.247-1.673 0-.65.082-1.205.246-1.665.167-.462.406-.814.717-1.057.313-.245.689-.367 1.127-.367.439 0 .814.122 1.125.367.313.243.552.595.716 1.057.167.46.25 1.015.25 1.665 0 .654-.082 1.211-.247 1.673-.164.46-.402.812-.713 1.054-.311.241-.688.362-1.13.362zm0-.646c.439 0 .78-.212 1.022-.635.243-.422.364-1.025.364-1.808 0-.521-.055-.964-.167-1.33-.11-.366-.268-.645-.476-.837a1.05 1.05 0 0 0-.743-.288c-.434 0-.774.214-1.018.643-.245.427-.367 1.03-.367 1.812 0 .52.054.963.164 1.327.11.364.267.64.473.83.207.19.457.286.748.286zm3.207.563v-.528l1.985-2.173c.233-.254.424-.476.575-.663.15-.19.262-.369.335-.535.074-.168.111-.344.111-.528a.975.975 0 0 0-.563-.908 1.333 1.333 0 0 0-.588-.126c-.23 0-.432.048-.605.144a.99.99 0 0 0-.396.396c-.092.17-.138.37-.138.6h-.693c0-.353.082-.662.244-.929.162-.266.384-.473.663-.622.282-.149.599-.223.949-.223.352 0 .664.074.936.223.273.149.486.35.64.602.155.252.233.533.233.843 0 .22-.04.437-.12.648-.08.21-.216.444-.412.702-.194.257-.463.57-.807.94l-1.351 1.444v.047h2.795v.646h-3.793zm4.736-1.233v-.599l2.642-4.18h.435v.927h-.294l-1.996 3.16v.046h3.558v.646h-4.345zm2.83 1.233v-6.013h.693v6.013h-.693zm12.085-6.013v6.013h-.728v-5.25h-.035l-1.468.975v-.74l1.503-.998h.728zm1.73 6.013v-.528l1.985-2.173c.233-.254.425-.476.575-.663.151-.19.263-.369.335-.535a1.3 1.3 0 0 0 .112-.528.974.974 0 0 0-.564-.908 1.333 1.333 0 0 0-.587-.126c-.231 0-.433.048-.605.144a.987.987 0 0 0-.397.396c-.092.17-.138.37-.138.6h-.693c0-.353.082-.662.244-.929a1.7 1.7 0 0 1 .664-.622 2 2 0 0 1 .948-.223c.352 0 .665.074.937.223.272.149.485.35.64.602.154.252.232.533.232.843 0 .22-.04.437-.121.648-.078.21-.215.444-.411.702-.194.257-.463.57-.807.94l-1.351 1.444v.047h2.795v.646h-3.793zm5.523-.769a.51.51 0 0 1-.373-.156.508.508 0 0 1-.156-.372c0-.145.052-.27.156-.373a.509.509 0 0 1 .373-.156c.145 0 .269.052.373.156a.51.51 0 0 1 .155.373.55.55 0 0 1-.264.458.501.501 0 0 1-.264.07zm0-3.042a.51.51 0 0 1-.373-.155.508.508 0 0 1-.156-.373c0-.145.052-.27.156-.373a.51.51 0 0 1 .373-.156.51.51 0 0 1 .373.156.511.511 0 0 1 .155.373.551.551 0 0 1-.264.458.501.501 0 0 1-.264.07zm1.76 3.811v-.528l1.985-2.173c.233-.254.425-.476.575-.663.151-.19.263-.369.335-.535a1.3 1.3 0 0 0 .112-.528.974.974 0 0 0-.564-.908 1.333 1.333 0 0 0-.587-.126c-.231 0-.433.048-.605.144a.994.994 0 0 0-.397.396c-.092.17-.138.37-.138.6h-.692c0-.353.081-.662.243-.929a1.7 1.7 0 0 1 .664-.622 2 2 0 0 1 .948-.223c.353 0 .665.074.937.223.272.149.485.35.64.602.155.252.232.533.232.843 0 .22-.04.437-.121.648-.078.21-.215.444-.411.702-.193.257-.463.57-.807.94l-1.351 1.444v.047h2.796v.646h-3.794zm4.736-1.233v-.599l2.643-4.18h.434v.927h-.293l-1.997 3.16v.046h3.559v.646h-4.346zm2.831 1.233v-6.013h.692v6.013h-.692zm2.627 1.692v-6.202h.669v.717h.082c.051-.078.122-.178.212-.3a1.24 1.24 0 0 1 .393-.329c.172-.097.405-.146.699-.146.38 0 .714.095 1.004.285.29.19.516.459.678.807.163.348.244.76.244 1.233 0 .478-.081.892-.244 1.242a1.917 1.917 0 0 1-.675.81c-.288.19-.619.285-.995.285-.29 0-.522-.048-.696-.144a1.29 1.29 0 0 1-.402-.331 4.523 4.523 0 0 1-.218-.312h-.058v2.385h-.693zm.681-3.947c0 .341.05.641.15.902.099.258.245.46.437.608.192.144.427.217.705.217.289 0 .531-.077.725-.23a1.39 1.39 0 0 0 .44-.622c.1-.262.15-.554.15-.875a2.37 2.37 0 0 0-.147-.857 1.323 1.323 0 0 0-.437-.608c-.194-.15-.438-.226-.731-.226-.282 0-.519.072-.711.215-.192.14-.336.338-.434.593a2.435 2.435 0 0 0-.147.883zm4.357 2.255v-4.51h.67v.705h.058c.094-.24.246-.428.455-.56.21-.136.461-.203.755-.203.298 0 .545.067.743.202.2.133.355.32.467.561h.047a1.31 1.31 0 0 1 .519-.555c.231-.139.508-.208.831-.208.404 0 .733.126.99.378.256.251.384.642.384 1.172v3.018h-.692v-3.018c0-.333-.092-.57-.274-.713a1.01 1.01 0 0 0-.643-.215c-.317 0-.562.096-.737.288-.174.19-.261.43-.261.722v2.936h-.705v-3.088a.812.812 0 0 0-.249-.62.894.894 0 0 0-.643-.238.949.949 0 0 0-.505.144c-.155.096-.28.229-.376.4a1.179 1.179 0 0 0-.141.584v2.818h-.693z"/><path fill="#F0F2F5" d="M104.487 29.284v9.89h-.587v-9.89h.587z"/><circle cx="146.619" cy="34.235" r="1.181" fill="#98A2B3"/><path fill="#98A2B3" d="M154.67 31.222v6.013h-.91v-5.103h-.036l-1.438.94v-.87l1.5-.98h.884zm3.72 6.096c-.403 0-.763-.07-1.081-.209a1.833 1.833 0 0 1-.748-.578 1.539 1.539 0 0 1-.294-.864h.922a.8.8 0 0 0 .179.464c.11.13.253.23.429.3.176.07.372.105.587.105.237 0 .446-.04.628-.123a1.03 1.03 0 0 0 .432-.343.874.874 0 0 0 .156-.514.921.921 0 0 0-.156-.532 1.013 1.013 0 0 0-.449-.364 1.727 1.727 0 0 0-.711-.132h-.508v-.74h.508c.223 0 .419-.04.587-.12a.96.96 0 0 0 .4-.335.898.898 0 0 0 .144-.508.9.9 0 0 0-.127-.484.844.844 0 0 0-.352-.326 1.147 1.147 0 0 0-.534-.118c-.196 0-.379.037-.549.109a1 1 0 0 0-.411.305.785.785 0 0 0-.171.473h-.878c.01-.325.106-.61.288-.857.184-.247.427-.44.728-.579a2.372 2.372 0 0 1 1.004-.208c.386 0 .719.075.999.226.282.149.499.347.652.596a1.5 1.5 0 0 1 .229.816c.002.337-.092.623-.282.858a1.368 1.368 0 0 1-.752.472v.047c.399.061.709.22.928.476.221.256.331.575.329.954.002.331-.09.628-.276.89a1.88 1.88 0 0 1-.755.62 2.562 2.562 0 0 1-1.095.223zm3.318-6.096h1.101l1.914 4.675h.071l1.914-4.675h1.101v6.013h-.863v-4.351h-.056l-1.773 4.343h-.717l-1.773-4.346h-.056v4.354h-.863v-6.013zm7.42 6.013v-6.013h2.202c.427 0 .78.07 1.06.211.28.14.49.328.629.567.139.237.208.504.208.802 0 .25-.046.462-.138.634-.092.17-.215.307-.37.411a1.633 1.633 0 0 1-.505.223v.059c.2.01.395.074.584.194.192.117.351.285.476.502.125.217.188.481.188.792 0 .308-.072.584-.217.829a1.48 1.48 0 0 1-.664.578c-.299.14-.682.211-1.148.211h-2.305zm.908-.778h1.309c.435 0 .746-.084.934-.252a.812.812 0 0 0 .282-.631.99.99 0 0 0-.144-.523 1.029 1.029 0 0 0-.411-.379 1.319 1.319 0 0 0-.629-.14h-1.341v1.925zm0-2.633h1.215c.204 0 .387-.04.549-.118a.959.959 0 0 0 .391-.329.87.87 0 0 0 .146-.505.835.835 0 0 0-.261-.625c-.174-.169-.441-.253-.801-.253h-1.239v1.83z"/><path fill="#F0F2F5" d="M228.251 26.054c0 7.828-6.346 14.174-14.175 14.174-7.828 0-14.174-6.346-14.174-14.174 0-7.828 6.346-14.174 14.174-14.174 7.829 0 14.175 6.346 14.175 14.174zm-25.514 0c0 6.262 5.077 11.34 11.339 11.34 6.263 0 11.34-5.078 11.34-11.34s-5.077-11.34-11.34-11.34c-6.262 0-11.339 5.077-11.339 11.34z"/><path fill="#B8FF33" d="M226.833 26.054c.783 0 1.425-.636 1.347-1.415a14.177 14.177 0 0 0-12.688-12.688c-.779-.079-1.416.563-1.416 1.346 0 .783.637 1.409 1.414 1.506a11.334 11.334 0 0 1 9.063 6.912c.388.938.648 1.922.774 2.925.098.777.723 1.414 1.506 1.414z"/><path fill="#000" d="M207.431 28.823v-.674l1.79-1.754a8.96 8.96 0 0 0 .427-.46c.114-.135.2-.265.257-.391a.965.965 0 0 0 .086-.403.76.76 0 0 0-.111-.417.734.734 0 0 0-.305-.272.982.982 0 0 0-.44-.096.904.904 0 0 0-.445.106.722.722 0 0 0-.297.294.944.944 0 0 0-.104.456h-.888c0-.327.075-.612.224-.853.149-.242.355-.43.617-.562.263-.132.565-.198.906-.198.345 0 .649.064.911.193.261.13.464.306.609.531.146.225.219.482.219.77 0 .193-.037.383-.111.57a2.427 2.427 0 0 1-.39.618 9.82 9.82 0 0 1-.778.823l-.888.904v.035h2.245v.78h-3.534zm6.194.07c-.336 0-.636-.062-.901-.188a1.609 1.609 0 0 1-.632-.523 1.396 1.396 0 0 1-.247-.76h.907a.711.711 0 0 0 .274.518.931.931 0 0 0 .599.199.944.944 0 0 0 .488-.126.897.897 0 0 0 .337-.35c.083-.15.123-.32.121-.51a1.026 1.026 0 0 0-.123-.52.924.924 0 0 0-.345-.354.963.963 0 0 0-.503-.131 1.198 1.198 0 0 0-.456.085.942.942 0 0 0-.355.232l-.843-.138.269-2.658h2.99v.78h-2.217l-.148 1.367h.03c.095-.113.23-.206.405-.28.174-.075.366-.113.574-.113a1.567 1.567 0 0 1 1.414.825 1.8 1.8 0 0 1 .212.881c0 .341-.079.645-.237.912a1.67 1.67 0 0 1-.652.626 1.975 1.975 0 0 1-.961.227zm5.448-1.036v-.272c0-.2.042-.383.126-.551a1.02 1.02 0 0 1 .373-.405c.163-.103.36-.154.591-.154.238 0 .438.051.599.154a.97.97 0 0 1 .365.402c.084.168.126.353.126.554v.272c0 .2-.042.383-.126.551a.999.999 0 0 1-.37.405 1.086 1.086 0 0 1-.594.154c-.235 0-.433-.051-.596-.154a.999.999 0 0 1-.37-.405 1.239 1.239 0 0 1-.124-.551zm.657-.272v.272c0 .132.032.254.096.365.064.11.176.166.337.166.163 0 .275-.055.335-.164a.74.74 0 0 0 .093-.367v-.272a.769.769 0 0 0-.088-.367c-.059-.113-.172-.169-.34-.169-.157 0-.269.056-.334.169a.704.704 0 0 0-.099.367zm-3.276-2.678v-.272c0-.2.042-.386.128-.553.086-.168.21-.302.372-.403a1.09 1.09 0 0 1 .592-.153c.236 0 .435.05.596.153a.96.96 0 0 1 .368.403c.082.168.123.352.123.553v.272c0 .202-.042.386-.126.554a.965.965 0 0 1-.367.4 1.11 1.11 0 0 1-.594.151c-.237 0-.436-.05-.599-.15a.99.99 0 0 1-.368-.404 1.226 1.226 0 0 1-.125-.55zm.661-.272v.272a.74.74 0 0 0 .094.368c.063.109.176.163.337.163.161 0 .272-.054.332-.163a.74.74 0 0 0 .093-.368v-.272a.769.769 0 0 0-.088-.367c-.059-.112-.171-.169-.337-.169-.16 0-.271.057-.335.169a.73.73 0 0 0-.096.367zm-.374 4.188 3.543-5.154h.629l-3.543 5.154h-.629z"/><path fill="#98A2B3" d="M242.559 21.669a.688.688 0 1 0-.974.974l3.41 3.41-3.41 3.411a.69.69 0 0 0 .974.974l3.411-3.41 3.41 3.41a.688.688 0 1 0 .974-.974l-3.41-3.41 3.41-3.411a.69.69 0 0 0-.974-.974l-3.41 3.41-3.411-3.41z"/><defs><clipPath id="a"><path fill="#fff" d="M12.098 11.88h28.348v28.348H12.098z"/></clipPath></defs></svg>